<?xml version="1.0" standalone="no"?><!DOCTYPE svg PUBLIC "-//W3C//DTD SVG 1.1//EN" "http://www.w3.org/Graphics/SVG/1.1/DTD/svg11.dtd"><svg t="1611194174969" class="icon" viewBox="0 0 1024 1024" version="1.1" xmlns="http://www.w3.org/2000/svg" p-id="3198" xmlns:xlink="http://www.w3.org/1999/xlink" width="200" height="200"><defs><style type="text/css"></style></defs><path d="M0.002194 0.001097h1023.998903v1023.998903H0.002194z" fill="#13227a" fill-opacity="0" p-id="3199"></path><path d="M1024.001097 512.731976c-0.219428 286.500264-230.143753 511.560595-522.166298 511.268024C226.086523 1023.707429-0.802376 791.04025 0.002194 509.440551 0.806765 228.096853 231.133375-0.547474 513.464501 0.001097 794.771628 0.622811 1024.220525 230.949421 1024.001097 512.731976zM166.950587 784.4574c3.364568 5.558851 4.754281 8.813705 7.021707 11.446844 70.80221 83.126768 160.328971 133.339286 267.812284 152.722122 16.457125 2.925711 22.052548-4.644566 27.428542-17.91998a1143.514203 1143.514203 0 0 0 70.217068-263.862575c12.214844-85.869622 19.382836-172.104958 11.885701-264.447716-49.883375 6.070851-97.938181 12.690272-146.1027 17.444552-18.102838 1.828569-24.063974 8.228563-24.063975 26.806829 0.292571 60.964506-17.298267 117.503874-47.359949 170.276389-39.935957 69.924497-97.64561 122.587297-166.838678 167.496963z m742.54549-86.05248c-2.450283-1.645713-6.729136-3.657139-9.947418-6.692564-75.629633-71.679923-136.045569-152.210123-153.051265-258.559723-0.731428-4.388567-4.973709-11.190845-8.411419-11.775987-40.228528-6.802278-80.676485-12.690272-123.245582-19.090266 6.399993 192.914079-20.114264 373.649885-86.783907 548.497698 146.212415 7.497135 332.360787-115.56559 381.439591-252.379158zM202.82712 197.779171c90.002189 22.747404 141.128992 81.554198 167.862677 163.583825 59.099365-6.692564 116.297018-13.092557 177.005525-20.00455-4.388567-27.501685-7.533706-54.271942-13.1657-80.457057-11.84913-55.80794-26.989685-110.701596-62.061648-157.40326-9.947418-13.1657-19.309694-28.818255-41.142813-24.649116-86.674193 16.457125-161.535827 55.00337-228.498041 118.930158z m542.463419 158.317545c10.239989-60.598792 36.05939-110.628453 86.674192-146.943843-84.553052-84.626195-182.198662-130.413575-301.165391-136.703853 13.202272 28.525684 28.342827 52.662801 35.766819 79.067343 15.140555 53.6868 25.709687 108.653598 39.314243 162.852397 2.63314 10.678846 9.033133 27.721113 15.871983 28.708541 39.899386 6.399993 80.566771 8.95999 123.538154 13.019415zM317.33214 437.760628c-6.509707 1.31657-10.898274 1.828569-15.140555 3.071997-52.955372 14.99427-106.203315 29.293683-158.829544 45.348523-79.250201 24.246831-79.725629 24.941688-65.718787 106.239886 8.630848 49.73709 24.868545 96.914182 52.516515 139.51985 111.469595-54.674227 194.26722-184.575802 187.172371-294.180256z m-10.78856-63.634217C291.622453 306.46934 229.524234 255.635109 166.76773 258.487677c-6.58285 0.329143-16.05484 1.718855-19.090265 6.217137-36.461675 52.333658-60.854792 109.567883-70.729067 175.944954 78.043345-22.63769 153.014693-44.361095 229.668325-66.450215z m622.847333 260.388292l9.654847-0.475428c4.681138-36.132533 9.764561-72.265065 13.714271-108.507312 0.621714-5.26628-2.121141-13.970271-6.070851-16.31084-42.678811-24.063974-85.869622-47.177092-128.950719-70.54621l-5.705137 7.826277c18.614837 75.410205 62.610219 135.058141 117.39416 188.050084zM872.595545 259.804247c-43.775953 23.771403-57.892509 61.805648-65.316501 103.606746-0.731428 4.169138 4.388567 12.178273 8.630848 14.006843 41.947384 17.883409 84.333624 34.815963 129.462718 53.1748-12.10513-62.098219-34.74282-117.906159-72.777065-170.788389z" fill="#13227a" p-id="3200"></path></svg>