<?xml version="1.0" standalone="no"?><!DOCTYPE svg PUBLIC "-//W3C//DTD SVG 1.1//EN" "http://www.w3.org/Graphics/SVG/1.1/DTD/svg11.dtd"><svg t="1611196033232" class="icon" viewBox="0 0 1024 1024" version="1.1" xmlns="http://www.w3.org/2000/svg" p-id="4731" xmlns:xlink="http://www.w3.org/1999/xlink" width="200" height="200"><defs><style type="text/css"></style></defs><path d="M822.9376 780.612267L554.325333 511.982933l48.5376-48.5376c94.702933 81.6128 216.388267 109.346133 318.72 80.418134a409.088 409.088 0 0 1-98.6624 236.7488z m-621.909333 0A409.1392 409.1392 0 0 1 102.570667 547.874133c83.5072-31.7952 189.576533-10.8032 272.503466 58.709334L201.045333 780.629333z m405.538133-405.538134c-69.5296-82.978133-90.197333-188.928-58.3168-272.4864A409.122133 409.122133 0 0 1 780.629333 201.045333L606.5664 375.074133zM417.416533 648.942933c69.563733 82.944 90.231467 188.9792 58.368 272.4864a409.378133 409.378133 0 0 1-232.3968-98.474666l174.0288-174.011734z m503.978667-173.294933c-83.5072 31.931733-189.4912 11.3152-272.503467-58.2144L822.954667 243.4048a409.0368 409.0368 0 0 1 98.440533 232.2432zM479.778133 102.4c-28.8256 102.3488-0.802133 224.0512 80.759467 318.72L512 469.674667 243.370667 201.0624A409.053867 409.053867 0 0 1 479.7952 102.4zM201.045333 243.4048l268.629334 268.578133-48.571734 48.554667C326.434133 478.958933 204.7488 451.072 102.4 479.931733a408.968533 408.968533 0 0 1 98.645333-236.526933zM544.119467 921.6c28.842667-102.3488 0.9216-224.0512-80.657067-318.72L512 554.3424 780.629333 822.954667A409.207467 409.207467 0 0 1 544.1024 921.6z" fill="#FFFFFF" p-id="4732"></path></svg>