<?xml version="1.0" standalone="no"?><!DOCTYPE svg PUBLIC "-//W3C//DTD SVG 1.1//EN" "http://www.w3.org/Graphics/SVG/1.1/DTD/svg11.dtd"><svg t="1611195781402" class="icon" viewBox="0 0 1024 1024" version="1.1" xmlns="http://www.w3.org/2000/svg" p-id="4313" xmlns:xlink="http://www.w3.org/1999/xlink" width="200" height="200"><defs><style type="text/css"></style></defs><path d="M 560.55 77.7 c -248.52 0 -450 201.47 -450 450 s 201.48 450 450 450 s 450 -201.47 450 -450 s -201.47 -450 -450 -450 Z m 97.06 198.48 c 32.68 0 59.2 26.31 59.2 58.68 s -26.52 58.68 -59.2 58.68 s -59.27 -26.31 -59.2 -58.68 s 26.53 -58.68 59.2 -58.68 Z m 149 130.25 c -43.39 60.17 -104.31 83.1 -168.38 63.62 q -30.13 51.37 -57.56 104.24 c 27.13 13.79 59.05 38 75.54 51 c 20.53 16.26 46.84 80.33 62.5 112.4 c 16.86 34.48 -37.32 59.5 -54.11 25.18 c -13.79 -28.32 -37.09 -84.6 -50.66 -95.69 s -58.07 -42.27 -92 -54 a 38.79 38.79 0 0 1 -4.64 -2 c -41.52 52.23 -123 76.88 -192.37 36.72 c -36.57 -21.21 -3.52 -73.37 33.2 -52.16 c 50.88 29.45 103.79 -8.24 127.77 -55.38 s 41 -80.33 60.4 -113.76 c -37.92 -12 -72.62 -1 -99.9 36.8 c -22.18 30.8 -74 1.27 -51.63 -29.9 c 52.76 -73.21 131.52 -91.35 210.35 -45 c 3.3 1.95 18.06 10 21.44 12 c 49 28.78 94.49 23.38 128.51 -23.83 c 22.14 -30.79 74 -1.27 51.52 29.76 Z" fill="#16ecc1" p-id="4314"></path></svg>